<svg width="914" height="400" fill="none" xmlns="http://www.w3.org/2000/svg">
  <path fill="#fff" d="M0 0h914v400H0z"/>
  <path d="M400.505 192.785c-.729 0-1.326-.214-1.791-.642a2.114 2.114 0 01-.697-1.6c0-.647.232-1.176.697-1.586.465-.41 1.062-.615 1.791-.615.738 0 1.335.205 1.791.615.465.41.697.939.697 1.586 0 .656-.232 1.194-.697 1.613-.456.42-1.053.629-1.791.629zM402.638 209h-4.32v-14h4.32v14zm13.686-.506c-.975.565-2.383.848-4.225.848-2.151 0-3.892-.652-5.222-1.955-1.331-1.304-1.996-2.985-1.996-5.045 0-2.379.711-4.252 2.132-5.619 1.431-1.377 3.341-2.065 5.729-2.065 1.65 0 2.844.219 3.582.656v3.665a4.923 4.923 0 00-3.022-1.012c-1.239 0-2.223.364-2.953 1.094-.72.72-1.08 1.718-1.08 2.994 0 1.239.347 2.215 1.039 2.925.693.702 1.646 1.053 2.858 1.053 1.075 0 2.128-.337 3.158-1.012v3.473zm14.862-5.264h-9.133c.146 2.033 1.426 3.049 3.842 3.049 1.54 0 2.894-.364 4.06-1.093v3.117c-1.294.692-2.976 1.039-5.045 1.039-2.26 0-4.015-.625-5.263-1.873-1.249-1.258-1.873-3.008-1.873-5.25 0-2.324.674-4.166 2.023-5.524 1.349-1.358 3.008-2.037 4.977-2.037 2.041 0 3.618.606 4.73 1.819 1.121 1.212 1.682 2.857 1.682 4.935v1.818zm-4.006-2.652c0-2.005-.811-3.008-2.434-3.008-.692 0-1.294.287-1.804.862-.502.574-.807 1.289-.916 2.146h5.154zm16.626 7.916c-.976.565-2.384.848-4.225.848-2.151 0-3.892-.652-5.223-1.955-1.33-1.304-1.996-2.985-1.996-5.045 0-2.379.711-4.252 2.133-5.619 1.431-1.377 3.34-2.065 5.729-2.065 1.649 0 2.843.219 3.582.656v3.665a4.925 4.925 0 00-3.022-1.012c-1.24 0-2.224.364-2.953 1.094-.72.72-1.08 1.718-1.08 2.994 0 1.239.346 2.215 1.039 2.925.693.702 1.645 1.053 2.857 1.053 1.076 0 2.129-.337 3.159-1.012v3.473zm13.932.506h-4.088v-2.01h-.055c-.939 1.568-2.329 2.352-4.17 2.352-1.358 0-2.429-.383-3.213-1.149-.774-.774-1.162-1.804-1.162-3.089 0-2.717 1.609-4.284 4.826-4.704l3.801-.505c0-1.532-.829-2.297-2.488-2.297-1.668 0-3.254.496-4.758 1.49v-3.254c.602-.31 1.422-.583 2.461-.82 1.048-.237 2.001-.356 2.857-.356 3.993 0 5.989 1.992 5.989 5.975V209zm-4.061-5.688v-.943l-2.543.328c-1.403.183-2.105.816-2.105 1.901 0 .492.168.897.506 1.216.346.31.811.465 1.394.465.811 0 1.472-.278 1.983-.834.51-.565.765-1.276.765-2.133zm6.003 5.319v-3.5a9.27 9.27 0 002.119.957c.711.21 1.381.314 2.01.314.765 0 1.367-.104 1.804-.314.447-.21.67-.529.67-.957 0-.274-.1-.501-.301-.684-.2-.182-.46-.342-.779-.478a8.295 8.295 0 00-1.025-.369c-.374-.11-.734-.233-1.08-.37a11.178 11.178 0 01-1.477-.669 4.568 4.568 0 01-1.066-.848 3.452 3.452 0 01-.657-1.108c-.145-.419-.218-.916-.218-1.49 0-.784.168-1.458.506-2.023a4.206 4.206 0 011.367-1.381 6.11 6.11 0 011.955-.793c.738-.173 1.504-.26 2.297-.26.619 0 1.248.05 1.886.151a13.28 13.28 0 011.887.41v3.336a6.631 6.631 0 00-1.764-.711 7.134 7.134 0 00-1.832-.246c-.282 0-.551.027-.806.082a2.3 2.3 0 00-.656.218 1.147 1.147 0 00-.452.37.82.82 0 00-.164.505c0 .256.082.474.246.657.164.182.379.341.643.478.264.128.556.246.875.356.328.1.652.205.971.314.574.201 1.093.419 1.558.656a4.85 4.85 0 011.19.834c.337.319.592.693.765 1.121.183.429.274.939.274 1.532 0 .829-.183 1.54-.547 2.133a4.33 4.33 0 01-1.436 1.435c-.592.365-1.28.629-2.064.793-.775.173-1.581.26-2.42.26-1.54 0-2.967-.237-4.279-.711zm21.151.205c-.638.337-1.6.506-2.885.506-3.044 0-4.567-1.582-4.567-4.744v-6.412h-2.269V195h2.269v-3.021l4.307-1.231V195h3.145v3.186h-3.145v5.66c0 1.458.579 2.187 1.736 2.187.456 0 .926-.132 1.409-.396v3.199z" fill="#333"/>
  <path d="M483.962 209.273c-.365 0-.674-.127-.93-.382a1.267 1.267 0 01-.382-.93c0-.374.123-.688.369-.943.255-.256.569-.383.943-.383.182 0 .351.036.506.109.164.064.305.155.424.274a1.297 1.297 0 01.396.943c0 .182-.036.355-.109.519a1.467 1.467 0 01-.287.411c-.119.118-.26.209-.424.273a1.173 1.173 0 01-.506.109zm16.352-1.353c0 2.598-.592 4.521-1.777 5.769-1.176 1.258-2.994 1.887-5.455 1.887a9.599 9.599 0 01-4.348-1.025v-1.778c1.522.848 2.971 1.272 4.348 1.272 3.655 0 5.482-1.932 5.482-5.797v-1.682h-.055c-1.075 1.842-2.716 2.762-4.921 2.762-.866 0-1.659-.159-2.379-.478a5.133 5.133 0 01-1.832-1.381c-.511-.602-.907-1.331-1.19-2.188-.282-.866-.424-1.841-.424-2.926 0-1.148.151-2.192.452-3.13.3-.948.729-1.76 1.285-2.434a5.696 5.696 0 012.009-1.559c.793-.373 1.682-.56 2.666-.56 1.978 0 3.423.802 4.334 2.406h.055V195h1.75v12.92zm-1.75-7.424c0-.583-.105-1.135-.314-1.654a4.295 4.295 0 00-.875-1.367 4.12 4.12 0 00-1.34-.93 3.98 3.98 0 00-1.695-.356c-.73 0-1.39.142-1.983.424a4.366 4.366 0 00-1.504 1.203c-.41.52-.729 1.153-.957 1.901-.219.738-.328 1.572-.328 2.502 0 .857.105 1.631.314 2.324.21.693.506 1.281.889 1.764a4 4 0 001.381 1.121 4.128 4.128 0 001.818.396c.693 0 1.322-.123 1.887-.369a4.383 4.383 0 001.449-1.039c.401-.447.711-.966.93-1.559a5.626 5.626 0 00.328-1.941v-2.42zm11.43 8.832c-1.039 0-1.973-.173-2.802-.519a6.034 6.034 0 01-2.106-1.463 6.55 6.55 0 01-1.34-2.284c-.31-.884-.465-1.863-.465-2.939 0-1.167.165-2.21.493-3.131.328-.92.793-1.7 1.394-2.338a6.016 6.016 0 012.201-1.476c.857-.338 1.814-.506 2.871-.506 1.012 0 1.924.168 2.735.506a5.507 5.507 0 012.064 1.435c.565.629.998 1.395 1.299 2.297.301.902.451 1.928.451 3.076 0 1.094-.159 2.092-.478 2.994a6.671 6.671 0 01-1.34 2.311 5.964 5.964 0 01-2.133 1.504c-.838.355-1.786.533-2.844.533zm.137-13.139c-.766 0-1.458.133-2.078.397a4.39 4.39 0 00-1.6 1.162c-.437.501-.774 1.121-1.011 1.859-.237.73-.356 1.559-.356 2.489 0 .875.119 1.663.356 2.365a5.4 5.4 0 00.998 1.805c.437.501.966.888 1.586 1.162.619.264 1.312.396 2.078.396.784 0 1.476-.127 2.078-.383a4.205 4.205 0 001.531-1.134c.419-.502.734-1.112.943-1.832.219-.72.329-1.541.329-2.461 0-1.887-.42-3.327-1.258-4.321-.839-1.002-2.037-1.504-3.596-1.504z" fill="#555"/>
</svg>
