<svg width="914" height="400" fill="none" xmlns="http://www.w3.org/2000/svg"><style>#CL0 {fill: #00ACD7;}#CL1 {fill: #333;}@media (prefers-color-scheme: dark) {#CL0 {fill: #00ACD7;}#CL1 {fill: #EEE;}}</style><path d="M380.055 208v-3.78h5.096v-7.84h-4.536v-3.78h8.736v11.62h4.424V208h-13.72Zm7-17.836c-.766 0-1.382-.196-1.848-.588-.448-.392-.672-.924-.672-1.596s.224-1.204.672-1.596c.466-.392 1.082-.588 1.848-.588.765 0 1.372.196 1.82.588.466.392.7.924.7 1.596s-.234 1.204-.7 1.596c-.448.392-1.055.588-1.82.588Zm15.361 18.116c-1.363 0-2.558-.252-3.584-.756-1.027-.523-1.82-1.241-2.38-2.156-.56-.933-.84-2.016-.84-3.248v-3.64c0-1.251.28-2.333.84-3.248.56-.915 1.353-1.624 2.38-2.128 1.026-.523 2.221-.784 3.584-.784 2.034 0 3.658.513 4.872 1.54 1.213 1.027 1.857 2.427 1.932 4.2h-4.088c-.056-.653-.336-1.167-.84-1.54-.486-.373-1.111-.56-1.876-.56-.84 0-1.484.215-1.932.644-.448.429-.672 1.055-.672 1.876v3.64c0 .803.224 1.428.672 1.876.448.429 1.092.644 1.932.644.765 0 1.39-.177 1.876-.532.504-.373.784-.896.84-1.568h4.088c-.075 1.773-.719 3.173-1.932 4.2-1.214 1.027-2.838 1.54-4.872 1.54Zm15.445 0c-1.363 0-2.558-.252-3.584-.756-1.008-.523-1.792-1.241-2.352-2.156-.542-.933-.812-2.016-.812-3.248v-3.64c0-1.232.27-2.305.812-3.22a5.598 5.598 0 0 1 2.352-2.156c1.026-.523 2.221-.784 3.584-.784 1.362 0 2.538.261 3.528.784 1.008.504 1.782 1.223 2.324 2.156.56.915.84 1.988.84 3.22v2.856h-9.436v.784c0 .971.224 1.68.672 2.128.466.448 1.157.672 2.072.672.597 0 1.12-.093 1.568-.28.448-.187.709-.467.784-.84h4.116c-.299 1.344-1.036 2.427-2.212 3.248-1.176.821-2.595 1.232-4.256 1.232Zm2.688-9.156v-.7c0-.952-.224-1.689-.672-2.212-.43-.523-1.102-.784-2.016-.784-.915 0-1.606.271-2.072.812-.448.541-.672 1.288-.672 2.24v.364l5.712-.056-.28.336Zm13.205 9.156c-1.363 0-2.557-.252-3.584-.756-1.027-.523-1.82-1.241-2.38-2.156-.56-.933-.84-2.016-.84-3.248v-3.64c0-1.251.28-2.333.84-3.248.56-.915 1.353-1.624 2.38-2.128 1.027-.523 2.221-.784 3.584-.784 2.035 0 3.659.513 4.872 1.54 1.213 1.027 1.857 2.427 1.932 4.2h-4.088c-.056-.653-.336-1.167-.84-1.54-.485-.373-1.111-.56-1.876-.56-.84 0-1.484.215-1.932.644-.448.429-.672 1.055-.672 1.876v3.64c0 .803.224 1.428.672 1.876.448.429 1.092.644 1.932.644.765 0 1.391-.177 1.876-.532.504-.373.784-.896.84-1.568h4.088c-.075 1.773-.719 3.173-1.932 4.2-1.213 1.027-2.837 1.54-4.872 1.54Zm13.429 0c-1.531 0-2.744-.439-3.64-1.316-.896-.896-1.344-2.063-1.344-3.5 0-1.045.243-1.941.728-2.688.504-.747 1.223-1.316 2.156-1.708.952-.411 2.091-.616 3.416-.616h3.024v-.98c0-.579-.205-1.027-.616-1.344-.392-.336-.961-.504-1.708-.504-.709 0-1.279.14-1.708.42-.411.28-.635.691-.672 1.232h-3.976c.056-1.512.653-2.716 1.792-3.612 1.139-.896 2.679-1.344 4.62-1.344 2.035 0 3.621.467 4.76 1.4 1.139.933 1.708 2.24 1.708 3.92V208h-4.06v-3.052h-.672l.756-.448c0 .765-.187 1.437-.56 2.016-.373.56-.905.999-1.596 1.316-.672.299-1.475.448-2.408.448Zm1.484-3.36c.877 0 1.568-.215 2.072-.644.523-.448.784-1.027.784-1.736v-1.568h-2.94c-.747 0-1.325.187-1.736.56-.392.355-.588.821-.588 1.4s.205 1.055.616 1.428c.429.373 1.027.56 1.792.56Zm15.529 3.36c-1.269 0-2.38-.196-3.332-.588-.952-.411-1.699-.971-2.24-1.68-.523-.709-.784-1.54-.784-2.492h4.116c0 .523.196.915.588 1.176.392.261.943.392 1.652.392h1.232c.765 0 1.353-.131 1.764-.392.429-.261.644-.635.644-1.12 0-.467-.168-.803-.504-1.008-.336-.224-.849-.373-1.54-.448l-3.528-.42c-1.363-.168-2.408-.672-3.136-1.512-.728-.859-1.092-1.923-1.092-3.192 0-1.549.504-2.716 1.512-3.5 1.008-.784 2.501-1.176 4.48-1.176h1.316c1.885 0 3.388.411 4.508 1.232s1.68 1.923 1.68 3.304h-4.116c0-.448-.187-.793-.56-1.036-.355-.243-.859-.364-1.512-.364h-1.316c-.653 0-1.148.121-1.484.364-.336.243-.504.579-.504 1.008 0 .429.159.719.476.868.336.149.803.261 1.4.336l3.36.42c1.512.187 2.651.719 3.416 1.596.765.877 1.148 2.035 1.148 3.472 0 1.512-.541 2.688-1.624 3.528-1.083.821-2.679 1.232-4.788 1.232h-1.232Zm17.853-.28c-1.568 0-2.8-.448-3.696-1.344-.896-.896-1.344-2.128-1.344-3.696v-6.58h-4.144v-3.78h4.144v-4.34h4.2v4.34h6.02v3.78h-6.02v6.44c0 .411.103.747.308 1.008.224.261.541.392.952.392h4.62V208h-5.04Z" id="CL1"/><path d="M496.178 208.28c-.784 0-1.419-.233-1.904-.7-.467-.485-.7-1.111-.7-1.876 0-.765.233-1.391.7-1.876.485-.485 1.12-.728 1.904-.728.784 0 1.409.243 1.876.728.485.485.728 1.111.728 1.876 0 .765-.243 1.391-.728 1.876-.467.467-1.092.7-1.876.7Zm11.525 4.76v-2.912h4.34c.822 0 1.456-.224 1.904-.672.448-.429.672-1.017.672-1.764v-.924l.056-2.408c-.317.859-.83 1.531-1.54 2.016-.69.467-1.54.7-2.548.7-1.568 0-2.818-.523-3.752-1.568-.914-1.064-1.372-2.501-1.372-4.312V198.2c0-1.792.458-3.22 1.372-4.284.934-1.064 2.184-1.596 3.752-1.596 1.008 0 1.858.243 2.548.728.71.467 1.223 1.139 1.54 2.016V192.6h3.416v15.176c0 1.624-.541 2.903-1.624 3.836-1.064.952-2.52 1.428-4.368 1.428h-4.396Zm4.06-8.96c.896 0 1.587-.261 2.072-.784.504-.541.756-1.288.756-2.24v-2.688c0-.952-.252-1.689-.756-2.212-.485-.541-1.176-.812-2.072-.812-.896 0-1.586.261-2.072.784-.485.504-.728 1.213-.728 2.128v2.912c0 .915.243 1.633.728 2.156.486.504 1.176.756 2.072.756Zm15.753 4.172c-1.978 0-3.546-.551-4.704-1.652-1.157-1.12-1.736-2.623-1.736-4.508v-3.584c0-1.904.579-3.407 1.736-4.508 1.158-1.101 2.726-1.652 4.704-1.652 1.979 0 3.547.551 4.704 1.652 1.158 1.101 1.736 2.604 1.736 4.508v3.584c0 1.885-.578 3.388-1.736 4.508-1.157 1.101-2.725 1.652-4.704 1.652Zm0-3.052c.934 0 1.652-.252 2.156-.756.523-.523.784-1.269.784-2.24v-3.808c0-.971-.261-1.708-.784-2.212-.504-.523-1.222-.784-2.156-.784-.933 0-1.661.261-2.184.784-.504.504-.756 1.241-.756 2.212v3.808c0 .971.252 1.717.756 2.24.523.504 1.251.756 2.184.756Z" id="CL0"/></svg>